<svg width="99" height="99" viewBox="0 0 99 99" fill="none" xmlns="http://www.w3.org/2000/svg">
<g filter="url(#filter0_d_0_632)">
<path d="M49.5 68.5C65.5163 68.5 78.5 55.5163 78.5 39.5C78.5 23.4837 65.5163 10.5 49.5 10.5C33.4837 10.5 20.5 23.4837 20.5 39.5C20.5 55.5163 33.4837 68.5 49.5 68.5Z" stroke="white"/>
</g>
<path d="M45.9641 35.9645C44.0146 37.914 44.0146 41.086 45.9641 43.0355C47.9136 44.985 51.0856 44.985 53.0351 43.0355C54.9846 41.086 54.9846 37.914 53.0351 35.9645C51.0856 34.015 47.9136 34.015 45.9641 35.9645ZM44.1963 34.1967C47.1252 31.2678 51.874 31.2678 54.8029 34.1967C57.7318 37.1256 57.7318 41.8744 54.8029 44.8033C51.874 47.7322 47.1252 47.7322 44.1963 44.8033C41.2674 41.8744 41.2674 37.1256 44.1963 34.1967Z" fill="white"/>
<path d="M53.742 43.742L58.6918 48.6918" stroke="white" stroke-width="2.5" stroke-linecap="round"/>
<defs>
<filter id="filter0_d_0_632" x="0" y="0" width="99" height="99" filterUnits="userSpaceOnUse" color-interpolation-filters="sRGB">
<feFlood flood-opacity="0" result="BackgroundImageFix"/>
<feColorMatrix in="SourceAlpha" type="matrix" values="0 0 0 0 0 0 0 0 0 0 0 0 0 0 0 0 0 0 127 0" result="hardAlpha"/>
<feOffset dy="10"/>
<feGaussianBlur stdDeviation="10"/>
<feColorMatrix type="matrix" values="0 0 0 0 0 0 0 0 0 0 0 0 0 0 0 0 0 0 0.11 0"/>
<feBlend mode="normal" in2="BackgroundImageFix" result="effect1_dropShadow_0_632"/>
<feBlend mode="normal" in="SourceGraphic" in2="effect1_dropShadow_0_632" result="shape"/>
</filter>
</defs>
</svg>
